<svg t="1686663951057" class="icon" viewBox="0 0 1024 1024" version="1.1" xmlns="http://www.w3.org/2000/svg" p-id="11362" width="16" height="16"><path d="M332.5 234.564v171.227a32 32 0 0 0 16 27.712l148.286 85.614a32 32 0 0 0 32 0L677.074 433.5a32 32 0 0 0 16-27.712V234.564a32 32 0 0 0-16-27.713l-148.287-85.613a32 32 0 0 0-32 0L348.5 206.851a32 32 0 0 0-16 27.713zM114.39 617.408v171.227a32 32 0 0 0 16 27.712l148.287 85.614a32 32 0 0 0 32 0l148.286-85.614a32 32 0 0 0 16-27.712V617.408a32 32 0 0 0-16-27.713l-148.286-85.613a32 32 0 0 0-32 0L130.39 589.7a32 32 0 0 0-16 27.708zM551.427 616.409v171.227a32 32 0 0 0 16 27.713l148.286 85.613a32 32 0 0 0 32 0L896 815.349a32 32 0 0 0 16-27.713V616.409a32 32 0 0 0-16-27.709l-148.287-85.617a32 32 0 0 0-32 0L567.427 588.7a32 32 0 0 0-16 27.709z" p-id="11363" fill="#AFB1B3"></path></svg>