<svg t="1686889368661" class="icon" viewBox="0 0 1024 1024" version="1.1" xmlns="http://www.w3.org/2000/svg" p-id="1239" width="16" height="16"><path d="M310.415 198.452v196.657a32 32 0 0 0 16 27.713l170.31 98.329a32 32 0 0 0 32 0l170.31-98.329a32 32 0 0 0 16-27.713V198.452a32 32 0 0 0-16-27.713l-170.31-98.328a32 32 0 0 0-32 0l-170.31 98.328a32 32 0 0 0-16 27.713zM65.66 628.064v196.657a32 32 0 0 0 16 27.713l170.31 98.328a32 32 0 0 0 32 0l170.31-98.328a32 32 0 0 0 16-27.713V628.064a32 32 0 0 0-16-27.713l-170.31-98.329a32 32 0 0 0-32 0L81.66 600.351a32 32 0 0 0-16 27.713zM556.084 626.943V823.6a32 32 0 0 0 16 27.713l170.31 98.328a32 32 0 0 0 32 0L944.7 851.313a32 32 0 0 0 16-27.713V626.943a32 32 0 0 0-16-27.713L774.394 500.9a32 32 0 0 0-32 0l-170.31 98.33a32 32 0 0 0-16 27.713z" p-id="1240" fill="#ff8936"></path></svg>